<svg xmlns="http://www.w3.org/2000/svg" xmlns:xlink="http://www.w3.org/1999/xlink" width="1266.107" height="325.634" viewBox="0 0 1266.107 325.634">
  <defs>
    <clipPath id="clip-path">
      <rect id="Rectangle_2" data-name="Rectangle 2" width="1266.107" height="325.634" fill="none"/>
    </clipPath>
  </defs>
  <g id="Group_3" data-name="Group 3" transform="translate(-402.417 -330)">
    <g id="Group_2" data-name="Group 2" transform="translate(402.417 330)">
      <g id="Group_1" data-name="Group 1" clip-path="url(#clip-path)">
        <path id="Path_1" data-name="Path 1" d="M78.04,325.636H1188.07c43.1,0,78.037-36.012,78.037-80.436V80.435c0-44.423-34.94-80.436-78.037-80.436H78.04C34.94,0,0,36.011,0,80.435V245.2c0,44.423,34.94,80.436,78.04,80.436" transform="translate(0 -0.002)"/>
        <path id="Path_2" data-name="Path 2" d="M187.779,26.961h15.989c12.543,0,21.007,4.431,21.007,17.306,0,12.375-8.421,18.155-20.666,18.155h-9.2V85.739h-7.125Zm15.43,29.4c9.79,0,14.462-3.726,14.462-12.09,0-8.478-4.967-11.241-14.8-11.241H194.9v23.33Z" transform="translate(316.133 47.611)" fill="#fff"/>
        <path id="Path_3" data-name="Path 3" d="M203.618,54.981c0-14.527,9.049-22.9,19.211-22.9s19.212,8.37,19.212,22.9c0,14.416-9.049,22.786-19.212,22.786s-19.211-8.37-19.211-22.786m31.175,0c0-9.974-4.833-16.764-11.963-16.764s-11.963,6.79-11.963,16.764,4.833,16.654,11.963,16.654,11.963-6.677,11.963-16.654" transform="translate(342.799 56.659)" fill="#fff"/>
        <path id="Path_4" data-name="Path 4" d="M220.024,32.473h7.17l6.151,25.148c.9,4.138,1.672,8.049,2.461,12.14h.341c.9-4.091,1.8-8.071,2.82-12.14l6.4-25.148h6.846l6.465,25.148c1.025,4.138,1.924,8.049,2.882,12.14h.341c.9-4.091,1.672-8,2.568-12.14l6.046-25.148H277.2L266.076,76.006h-8.539l-5.982-23.394c-1.006-4.118-1.8-8.123-2.8-12.541h-.341c-.9,4.417-1.731,8.536-2.845,12.654l-5.81,23.281h-8.2Z" transform="translate(370.419 57.345)" fill="#fff"/>
        <path id="Path_5" data-name="Path 5" d="M243.418,54.981c0-14.167,9.095-22.9,18.64-22.9,10.573,0,16.544,7.974,16.544,20.429a24.259,24.259,0,0,1-.327,4.182H250.352c.5,9.222,5.874,15.2,13.777,15.2a17.56,17.56,0,0,0,10.318-3.477l2.509,4.832a23.573,23.573,0,0,1-13.689,4.514c-11.051,0-19.85-8.483-19.85-22.786m28.985-3.56c0-8.724-3.738-13.467-10.222-13.467-5.826,0-11.037,4.912-11.888,13.467Z" transform="translate(409.803 56.659)" fill="#fff"/>
        <path id="Path_6" data-name="Path 6" d="M260.333,33.16h5.8l.593,7.927h.233c2.885-5.524,7.122-9,11.786-9a9.224,9.224,0,0,1,4.428.9l-1.312,6.458a11.18,11.18,0,0,0-4.023-.714c-3.5,0-7.683,2.65-10.485,10.013V76.693h-7.017Z" transform="translate(438.281 56.658)" fill="#fff"/>
        <path id="Path_7" data-name="Path 7" d="M269.9,54.981c0-14.167,9.095-22.9,18.64-22.9,10.573,0,16.544,7.974,16.544,20.429a24.255,24.255,0,0,1-.327,4.182H276.833c.5,9.222,5.874,15.2,13.777,15.2a17.56,17.56,0,0,0,10.318-3.477l2.509,4.832a23.573,23.573,0,0,1-13.689,4.514c-11.051,0-19.85-8.483-19.85-22.786m28.985-3.56c0-8.724-3.738-13.467-10.222-13.467-5.826,0-11.037,4.912-11.888,13.467Z" transform="translate(454.385 56.659)" fill="#fff"/>
        <path id="Path_8" data-name="Path 8" d="M285.713,67.236c0-14.12,8.483-22.9,17.937-22.9,4.822,0,7.984,1.906,11.62,5.042l-.3-7.465V25.144h7.015v63.8h-5.8l-.593-5.136h-.234c-3.223,3.383-7.637,6.212-12.578,6.212-10.358,0-17.075-8.278-17.075-22.788m29.261,10.646V55.066c-3.537-3.311-6.728-4.528-10.114-4.528-6.626,0-11.9,6.716-11.9,16.634,0,10.436,4.114,16.651,11.378,16.651,3.835,0,7.16-1.961,10.635-5.941" transform="translate(481.009 44.402)" fill="#fff"/>
        <path id="Path_9" data-name="Path 9" d="M317.312,84.451h-.233l-.657,4.5h-5.606v-63.8h7.017v17.45L317.6,50.4c3.795-3.433,8.41-6.063,13.026-6.063,10.713,0,16.469,8.729,16.469,22.149,0,14.87-8.483,23.535-17.956,23.535-3.862,0-8.153-2.083-11.824-5.573m22.531-17.862c0-9.609-3.124-16.051-10.927-16.051-3.513,0-7.16,2.03-11.083,5.941V79.3c3.644,3.311,7.353,4.525,10.1,4.525,6.859,0,11.915-6.486,11.915-17.234" transform="translate(523.269 44.402)" fill="#fff"/>
        <path id="Path_10" data-name="Path 10" d="M327.853,93.871,329.227,88a10.315,10.315,0,0,0,3.158.65c4.68,0,7.635-3.941,9.349-9.346l.942-3.214L326.042,32.473h7.232l8.458,24.1c1.3,3.781,2.694,8.24,4.041,12.264h.341c1.175-3.958,2.353-8.419,3.486-12.264l7.388-24.1h6.875L348.24,79.59c-2.925,8.638-7.211,15.177-15.522,15.177a12.9,12.9,0,0,1-4.865-.9" transform="translate(548.904 57.345)" fill="#fff"/>
        <path id="Path_11" data-name="Path 11" d="M348.2,78.777l4.261-5.134c4.031,4.387,9.626,7.28,15.444,7.28,7.345,0,11.7-3.839,11.7-9.551,0-6-4.055-7.916-9.339-10.342l-8.04-3.723c-5.217-2.337-11.335-6.489-11.335-15.132,0-8.981,7.449-15.6,17.62-15.6A22.6,22.6,0,0,1,385,33.856l-3.778,4.8a17.485,17.485,0,0,0-12.707-5.512c-6.277,0-10.434,3.325-10.434,8.583,0,5.662,4.879,7.781,9.266,9.728l7.975,3.626C381.8,58,386.859,62.057,386.859,70.8c0,9.285-7.307,16.7-19.077,16.7A26.235,26.235,0,0,1,348.2,78.777" transform="translate(586.213 46.926)" fill="#fff"/>
        <rect id="Rectangle_1" data-name="Rectangle 1" width="19.552" height="5.654" transform="translate(981.11 108.062)" fill="#fff"/>
        <path id="Path_12" data-name="Path 12" d="M393.193,26.961h8.037l18.938,58.778h-7.546l-9.763-32.829c-2.013-6.572-3.808-13.022-5.6-19.807h-.343c-1.734,6.818-3.529,13.235-5.542,19.807L381.5,85.739h-7.248Zm-8.982,34.9h25.773v5.969H384.211Z" transform="translate(630.073 47.611)" fill="#fff"/>
        <path id="Path_13" data-name="Path 13" d="M394.072,33.16h5.8l.59,5.023h.234c3.752-3.269,8.413-6.1,13.219-6.1,10.71,0,16.437,8.729,16.437,22.183,0,14.836-8.483,23.5-17.956,23.5-3.8,0-7.686-1.839-11.491-5.045l.188,7.6V95.058h-7.017ZM423.1,54.333c0-9.609-3.124-16.051-10.927-16.051-3.513,0-7.052,2.03-11.083,5.941V67.042c3.752,3.311,7.353,4.525,10.1,4.525,6.859,0,11.915-6.486,11.915-17.234" transform="translate(663.435 56.658)" fill="#fff"/>
        <path id="Path_14" data-name="Path 14" d="M411.715,33.16h5.8l.59,5.023h.234c3.751-3.269,8.413-6.1,13.219-6.1,10.71,0,16.437,8.729,16.437,22.183,0,14.836-8.483,23.5-17.956,23.5-3.8,0-7.686-1.839-11.491-5.045l.188,7.6V95.058h-7.017Zm29.028,21.173c0-9.609-3.124-16.051-10.927-16.051-3.513,0-7.052,2.03-11.083,5.941V67.042c3.752,3.311,7.353,4.525,10.1,4.525,6.859,0,11.915-6.486,11.915-17.234" transform="translate(693.138 56.658)" fill="#fff"/>
        <path id="Path_15" data-name="Path 15" d="M427.581,71.725l3.464-4.854c3.6,3.048,7.256,5.158,12.24,5.158,5.44,0,8.145-3.045,8.145-6.763,0-4.478-4.895-6.458-9.481-8.248-5.812-2.232-12.366-5.233-12.366-12.577,0-6.967,5.316-12.358,14.3-12.358a20.433,20.433,0,0,1,12.892,4.893L453.418,41.7c-2.855-2.218-5.786-3.878-9.454-3.878-5.222,0-7.635,2.926-7.635,6.245,0,4.138,4.508,5.712,9.2,7.551,5.982,2.368,12.645,4.923,12.645,13.207,0,7.061-5.343,12.944-15.124,12.944a24.214,24.214,0,0,1-15.471-6.044" transform="translate(719.849 56.658)" fill="#fff"/>
        <path id="Path_16" data-name="Path 16" d="M186.092,117.633l4.261-5.134c4.031,4.387,9.626,7.28,15.444,7.28,7.345,0,11.7-3.839,11.7-9.551,0-6-4.055-7.916-9.339-10.342l-8.04-3.723c-5.217-2.337-11.335-6.489-11.335-15.132,0-8.981,7.45-15.6,17.62-15.6a22.6,22.6,0,0,1,16.485,7.283l-3.778,4.8A17.485,17.485,0,0,0,206.406,72c-6.277,0-10.434,3.325-10.434,8.583,0,5.662,4.879,7.781,9.266,9.728l7.975,3.626c6.478,2.921,11.534,6.973,11.534,15.713,0,9.285-7.307,16.7-19.077,16.7a26.235,26.235,0,0,1-19.579-8.724" transform="translate(313.293 115.542)" fill="#fff"/>
        <path id="Path_17" data-name="Path 17" d="M203.922,132.728l1.374-5.869a10.282,10.282,0,0,0,3.159.65c4.68,0,7.635-3.941,9.347-9.346l.942-3.214L202.111,71.33h7.229l8.461,24.1c1.3,3.781,2.694,8.24,4.041,12.264h.338c1.178-3.958,2.353-8.419,3.486-12.264l7.39-24.1h6.872l-15.621,47.117c-2.928,8.638-7.213,15.177-15.524,15.177a12.88,12.88,0,0,1-4.863-.9" transform="translate(340.262 125.963)" fill="#fff"/>
        <path id="Path_18" data-name="Path 18" d="M219.181,72.017h5.8l.593,7.927h.234c2.885-5.524,7.122-9,11.786-9a9.224,9.224,0,0,1,4.428.9L240.706,78.3a11.18,11.18,0,0,0-4.023-.714c-3.5,0-7.683,2.65-10.485,10.013V115.55h-7.017Z" transform="translate(369 125.276)" fill="#fff"/>
        <path id="Path_19" data-name="Path 19" d="M229.734,69.41a4.847,4.847,0,0,1,9.693,0,4.847,4.847,0,0,1-9.693,0m1.283,13.711h7.017v43.533h-7.017Z" transform="translate(386.766 114.172)" fill="#fff"/>
        <path id="Path_20" data-name="Path 20" d="M237.075,104.248c0-9.484,7.793-14.228,25.464-16.244-.019-5.6-1.787-11-8.558-11-4.8,0-9.116,2.387-12.366,4.669l-2.743-5.051c3.813-2.63,9.631-5.684,16.284-5.684,10.12,0,14.4,7.061,14.4,17.9V115.55H263.76l-.593-5.205h-.236c-3.947,3.452-8.563,6.279-13.707,6.279-6.94,0-12.148-4.522-12.148-12.375m25.464.678V92.839c-13.9,1.754-18.592,5.327-18.592,10.889,0,4.945,3.2,6.962,7.264,6.962,4.007,0,7.313-2.047,11.327-5.764" transform="translate(399.125 125.276)" fill="#fff"/>
        <path id="Path_21" data-name="Path 21" d="M254.054,72.017h5.8l.593,6.281h.234c3.95-4.085,8.214-7.357,13.906-7.357,8.735,0,12.658,5.922,12.658,17.027V115.55h-7.015V88.917c0-8.107-2.335-11.578-7.823-11.578-4.237,0-7.176,2.274-11.333,6.685V115.55h-7.018Z" transform="translate(427.71 125.276)" fill="#fff"/>
        <path id="Path_22" data-name="Path 22" d="M293.014,72.149H276.078V65.818h40.994v6.331H300.136V124.6h-7.122Z" transform="translate(464.788 116.229)" fill="#fff"/>
        <path id="Path_23" data-name="Path 23" d="M309.984,65.818h8.037L336.959,124.6h-7.546L319.65,91.768c-2.013-6.572-3.808-13.022-5.6-19.809h-.344c-1.734,6.818-3.529,13.238-5.542,19.809l-9.87,32.829h-7.248ZM301,100.721h25.773v5.969H301Z" transform="translate(489.987 116.229)" fill="#fff"/>
        <path id="Path_24" data-name="Path 24" d="M325.167,94.229,309.93,65.818h7.86l7.635,15.038c1.409,2.688,2.6,5.12,4.355,8.541h.341c1.516-3.421,2.6-5.853,3.948-8.541l7.449-15.038h7.5l-15.24,28.79L350.084,124.6h-7.86l-8.206-15.824c-1.473-2.932-2.989-5.864-4.785-9.446h-.341c-1.629,3.582-3.038,6.514-4.449,9.446l-8.08,15.824h-7.5Z" transform="translate(519.981 116.229)" fill="#fff"/>
        <path id="Path_25" data-name="Path 25" d="M333.9,65.818h32.264v6.331H341.024V90.564h21.211V96.9H341.024v21.369h26V124.6H333.9Z" transform="translate(562.131 116.229)" fill="#fff"/>
        <path id="Path_26" data-name="Path 26" d="M350.409,72.017H356.2L356.8,78.3h.233c3.95-4.085,8.217-7.357,13.909-7.357,8.735,0,12.656,5.922,12.656,17.027V115.55h-7.015V88.917c0-8.107-2.332-11.578-7.823-11.578-4.237,0-7.176,2.274-11.333,6.685V115.55h-7.015Z" transform="translate(589.927 125.276)" fill="#fff"/>
        <path id="Path_27" data-name="Path 27" d="M366.84,104.248c0-9.484,7.793-14.228,25.464-16.244-.019-5.6-1.787-11-8.558-11-4.8,0-9.116,2.387-12.366,4.669l-2.743-5.051c3.813-2.63,9.631-5.684,16.284-5.684,10.12,0,14.4,7.061,14.4,17.9V115.55h-5.794l-.593-5.205H392.7c-3.947,3.452-8.563,6.279-13.708,6.279-6.94,0-12.148-4.522-12.148-12.375m25.464.678V92.839c-13.9,1.754-18.592,5.327-18.592,10.889,0,4.945,3.2,6.962,7.264,6.962,4.007,0,7.313-2.047,11.327-5.764" transform="translate(617.589 125.276)" fill="#fff"/>
        <path id="Path_28" data-name="Path 28" d="M390.317,123.308h-.233l-.657,4.5H383.82V64h7.017v17.45l-.236,7.808c3.795-3.433,8.41-6.063,13.026-6.063,10.713,0,16.469,8.729,16.469,22.149,0,14.87-8.483,23.535-17.956,23.535-3.862,0-8.153-2.083-11.824-5.573m22.531-17.862c0-9.609-3.124-16.051-10.927-16.051-3.513,0-7.16,2.03-11.083,5.941v22.819c3.644,3.311,7.353,4.525,10.1,4.525,6.859,0,11.915-6.486,11.915-17.234" transform="translate(646.176 113.02)" fill="#fff"/>
        <path id="Path_29" data-name="Path 29" d="M401.272,119.062V64h7.017v55.6c0,2.254.934,3.148,1.956,3.148a5.843,5.843,0,0,0,1.535-.177l.953,5.623a10.758,10.758,0,0,1-4.039.689c-5.257,0-7.423-3.527-7.423-9.819" transform="translate(675.557 113.02)" fill="#fff"/>
        <path id="Path_30" data-name="Path 30" d="M408.231,93.837c0-14.167,9.095-22.9,18.64-22.9,10.573,0,16.544,7.974,16.544,20.429a24.262,24.262,0,0,1-.327,4.182H415.165c.5,9.222,5.874,15.2,13.777,15.2a17.559,17.559,0,0,0,10.318-3.477l2.509,4.832a23.573,23.573,0,0,1-13.689,4.514c-11.051,0-19.85-8.483-19.85-22.786m28.985-3.56c0-8.724-3.738-13.467-10.222-13.467-5.826,0-11.037,4.912-11.888,13.467Z" transform="translate(687.272 125.276)" fill="#fff"/>
        <path id="Path_31" data-name="Path 31" d="M424.046,106.093c0-14.12,8.483-22.9,17.937-22.9,4.822,0,7.983,1.906,11.62,5.042l-.3-7.465V64h7.015v63.8h-5.8l-.593-5.136H453.7c-3.223,3.383-7.637,6.212-12.578,6.212-10.358,0-17.075-8.278-17.075-22.788m29.261,10.646V93.923c-3.537-3.311-6.728-4.528-10.114-4.528-6.626,0-11.9,6.716-11.9,16.634,0,10.436,4.114,16.651,11.378,16.651,3.835,0,7.16-1.961,10.635-5.941" transform="translate(713.898 113.02)" fill="#fff"/>
        <path id="Path_32" data-name="Path 32" d="M42.475,37.84C51.4,21.2,66.189,14.6,83.839,14.437c40.709-.371,81.424.033,122.133-.263,7.272-.053,10.189,2.271,9.556,9.653-.416,4.843.121,9.764-.164,14.629-.754,12.9-9.266,21.48-22.077,22.039-8.5.371-17.043-.194-25.523.362-23.081,1.518-41.92,21.743-41.9,44.548.021,22.852,18.957,42.667,42.37,44,8.118.462,16.313-.266,24.412.354,14.577,1.117,23.264,10.491,22.77,23.751-.488,13.149-9.977,21.978-24.487,22.017-48.854.136-97.708-.025-146.561.155-5.8.022-8.628-.929-8.566-7.83.378-43.159.352-86.319.459-129.481,2.2-6.8,3.486-13.893,6.212-20.534" transform="translate(60.275 25.03)" fill="#23c2f2"/>
        <path id="Path_33" data-name="Path 33" d="M237.3,211.267c-17.161,7.4-35.262,6.594-53.335,6.492-31.108-.174-62.223-.418-93.317.174-9.5.183-11.856-2.984-11.716-12.134a74.724,74.724,0,0,1,4.685-23.978c4.793-7.028,12.1-8.024,19.63-8.253,8.131-.249,16.324.315,24.393-.476,22.778-2.229,40.06-22.379,39.368-45.267-.674-22.338-18.656-41.417-40.835-42.88-8.48-.559-17.024-.011-25.518-.387-13.5-.595-22.823-9.827-23.162-22.49a22.563,22.563,0,0,1,22.477-23c49.951-.407,99.905-.16,149.86-.288,5.238-.014,7.221,2.061,7.205,7.324-.137,44.282.3,88.573-.437,132.844-.228,13.677-7.345,24.926-19.3,32.314" transform="translate(130.446 68.489)" fill="#23c2f2"/>
      </g>
    </g>
  </g>
</svg>
